# xmcd
#
# Track frame offsets: 
#        150
#        22259
#        44250
#
# Disc length: 883 seconds
#
# Revision: 5
# Processed by: cddbd v1.5.2PL0 Copyright (c) Steve Scherf et al.
# Submitted via: ExactAudioCopy v1.0b3
#
DISCID=21037103
DTITLE=宇多田ヒカル - Keep Tryin'
DYEAR=2006
DGENRE=JPop
TTITLE0=Keep Tryin'
TTITLE1=WINGS
TTITLE2=Keep Tryin' (Original Karaoke)
EXTD=YEAR: 2006
EXTT0=
EXTT1=
EXTT2=
PLAYORDER=
